<mxfile host="65bd71144e">
    <diagram id="dxsfqL3F4BJ808oqHLP2" name="Page-1">
        <mxGraphModel dx="816" dy="475" grid="1" gridSize="10" guides="1" tooltips="1" connect="1" arrows="1" fold="1" page="1" pageScale="1" pageWidth="850" pageHeight="1100" math="0" shadow="0">
            <root>
                <mxCell id="0"/>
                <mxCell id="1" parent="0"/>
                <mxCell id="29" value="UC01: Ventas" style="shape=umlFrame;whiteSpace=wrap;html=1;width=120;height=30;boundedLbl=1;verticalAlign=middle;align=left;spacingLeft=5;" parent="1" vertex="1">
                    <mxGeometry x="270" y="260" width="430" height="500" as="geometry"/>
                </mxCell>
                <mxCell id="49" style="edgeStyle=none;html=1;exitX=0.5;exitY=0.5;exitDx=0;exitDy=0;exitPerimeter=0;entryX=0;entryY=0.5;entryDx=0;entryDy=0;" edge="1" parent="1" source="2" target="9">
                    <mxGeometry relative="1" as="geometry">
                        <Array as="points"/>
                    </mxGeometry>
                </mxCell>
                <mxCell id="2" value="Cliente" style="shape=umlActor;verticalLabelPosition=bottom;verticalAlign=top;html=1;" parent="1" vertex="1">
                    <mxGeometry x="130" y="520" width="30" height="60" as="geometry"/>
                </mxCell>
                <mxCell id="3" value="PersonaNatural" style="shape=umlActor;verticalLabelPosition=bottom;verticalAlign=top;html=1;" parent="1" vertex="1">
                    <mxGeometry x="80" y="640" width="30" height="60" as="geometry"/>
                </mxCell>
                <mxCell id="4" value="PersonaJurÃ­dica" style="shape=umlActor;verticalLabelPosition=bottom;verticalAlign=top;html=1;" parent="1" vertex="1">
                    <mxGeometry x="190" y="640" width="30" height="60" as="geometry"/>
                </mxCell>
                <mxCell id="9" value="Comprar productos" style="ellipse;whiteSpace=wrap;html=1;" parent="1" vertex="1">
                    <mxGeometry x="320" y="510" width="140" height="60" as="geometry"/>
                </mxCell>
                <mxCell id="12" value="Pagar compra" style="ellipse;whiteSpace=wrap;html=1;" parent="1" vertex="1">
                    <mxGeometry x="300" y="380" width="140" height="70" as="geometry"/>
                </mxCell>
                <mxCell id="13" value="&amp;lt;&amp;lt;include&amp;gt;&amp;gt;" style="html=1;verticalAlign=bottom;labelBackgroundColor=none;endArrow=open;endFill=0;dashed=1;entryX=0.561;entryY=-0.031;entryDx=0;entryDy=0;entryPerimeter=0;" parent="1" source="12" target="9" edge="1">
                    <mxGeometry x="-0.3462" y="-28" width="160" relative="1" as="geometry">
                        <mxPoint x="400" y="490" as="sourcePoint"/>
                        <mxPoint x="560" y="490" as="targetPoint"/>
                        <mxPoint as="offset"/>
                    </mxGeometry>
                </mxCell>
                <mxCell id="14" value="Pagar en TC" style="ellipse;whiteSpace=wrap;html=1;" parent="1" vertex="1">
                    <mxGeometry x="490" y="320" width="140" height="70" as="geometry"/>
                </mxCell>
                <mxCell id="15" value="Pagar en efectivo" style="ellipse;whiteSpace=wrap;html=1;" parent="1" vertex="1">
                    <mxGeometry x="490" y="420" width="140" height="70" as="geometry"/>
                </mxCell>
                <mxCell id="17" value="&amp;lt;&amp;lt;extend&amp;gt;&amp;gt;" style="html=1;verticalAlign=bottom;labelBackgroundColor=none;endArrow=open;endFill=0;dashed=1;exitX=0.5;exitY=0;exitDx=0;exitDy=0;entryX=0;entryY=0.5;entryDx=0;entryDy=0;" parent="1" source="12" target="14" edge="1">
                    <mxGeometry width="160" relative="1" as="geometry">
                        <mxPoint x="340" y="360" as="sourcePoint"/>
                        <mxPoint x="500" y="360" as="targetPoint"/>
                    </mxGeometry>
                </mxCell>
                <mxCell id="18" value="&amp;lt;&amp;lt;extend&amp;gt;&amp;gt;" style="html=1;verticalAlign=bottom;labelBackgroundColor=none;endArrow=open;endFill=0;dashed=1;exitX=1;exitY=1;exitDx=0;exitDy=0;entryX=0;entryY=0.5;entryDx=0;entryDy=0;" parent="1" source="12" target="15" edge="1">
                    <mxGeometry width="160" relative="1" as="geometry">
                        <mxPoint x="380" y="390" as="sourcePoint"/>
                        <mxPoint x="500" y="365" as="targetPoint"/>
                    </mxGeometry>
                </mxCell>
                <mxCell id="50" style="edgeStyle=none;html=1;exitX=0.5;exitY=0.5;exitDx=0;exitDy=0;exitPerimeter=0;" edge="1" parent="1" source="19" target="9">
                    <mxGeometry relative="1" as="geometry"/>
                </mxCell>
                <mxCell id="19" value="Cajero" style="shape=umlActor;verticalLabelPosition=bottom;verticalAlign=top;html=1;" parent="1" vertex="1">
                    <mxGeometry x="750" y="530" width="30" height="60" as="geometry"/>
                </mxCell>
                <mxCell id="25" value="TC" style="shape=umlActor;verticalLabelPosition=bottom;verticalAlign=top;html=1;" parent="1" vertex="1">
                    <mxGeometry x="180" y="310" width="30" height="60" as="geometry"/>
                </mxCell>
                <mxCell id="28" value="" style="edgeStyle=none;orthogonalLoop=1;jettySize=auto;html=1;entryX=1;entryY=0.3333333333333333;entryDx=0;entryDy=0;entryPerimeter=0;exitX=0;exitY=0;exitDx=0;exitDy=0;" parent="1" source="14" target="25" edge="1">
                    <mxGeometry width="100" relative="1" as="geometry">
                        <mxPoint x="460" y="330" as="sourcePoint"/>
                        <mxPoint x="560" y="330" as="targetPoint"/>
                        <Array as="points"/>
                    </mxGeometry>
                </mxCell>
                <mxCell id="39" value="" style="endArrow=block;endSize=16;endFill=0;html=1;exitX=0.5;exitY=0;exitDx=0;exitDy=0;exitPerimeter=0;entryX=1;entryY=1;entryDx=0;entryDy=0;entryPerimeter=0;" parent="1" source="4" target="2" edge="1">
                    <mxGeometry width="160" relative="1" as="geometry">
                        <mxPoint x="115" y="644.5" as="sourcePoint"/>
                        <mxPoint x="275" y="644.5" as="targetPoint"/>
                    </mxGeometry>
                </mxCell>
                <mxCell id="40" value="" style="endArrow=block;endSize=16;endFill=0;html=1;exitX=0.5;exitY=0;exitDx=0;exitDy=0;exitPerimeter=0;entryX=0;entryY=1;entryDx=0;entryDy=0;entryPerimeter=0;" parent="1" source="3" target="2" edge="1">
                    <mxGeometry width="160" relative="1" as="geometry">
                        <mxPoint x="145" y="650" as="sourcePoint"/>
                        <mxPoint x="100" y="590" as="targetPoint"/>
                    </mxGeometry>
                </mxCell>
                <mxCell id="38" value="Empresa" style="shape=umlActor;verticalLabelPosition=bottom;verticalAlign=top;html=1;" parent="1" vertex="1">
                    <mxGeometry x="750" y="290" width="30" height="60" as="geometry"/>
                </mxCell>
                <mxCell id="43" value="" style="endArrow=none;startArrow=none;endFill=0;startFill=0;endSize=8;html=1;verticalAlign=bottom;labelBackgroundColor=none;strokeWidth=3;entryX=0.5;entryY=0;entryDx=0;entryDy=0;entryPerimeter=0;" parent="1" source="38" target="19" edge="1">
                    <mxGeometry width="160" relative="1" as="geometry">
                        <mxPoint x="670" y="450" as="sourcePoint"/>
                        <mxPoint x="830" y="450" as="targetPoint"/>
                    </mxGeometry>
                </mxCell>
                <mxCell id="47" style="edgeStyle=none;html=1;exitX=0.5;exitY=0.5;exitDx=0;exitDy=0;entryX=1;entryY=1;entryDx=0;entryDy=0;exitPerimeter=0;" parent="1" source="48" target="9" edge="1">
                    <mxGeometry relative="1" as="geometry">
                        <mxPoint x="510.08129325906157" y="610.463686517166" as="sourcePoint"/>
                    </mxGeometry>
                </mxCell>
                <mxCell id="48" value="Producto" style="shape=umlActor;verticalLabelPosition=bottom;verticalAlign=top;html=1;outlineConnect=0;" parent="1" vertex="1">
                    <mxGeometry x="570" y="760" width="30" height="60" as="geometry"/>
                </mxCell>
            </root>
        </mxGraphModel>
    </diagram>
</mxfile>